<?xml version="1.0" encoding="UTF-8" standalone="no"?>
<!-- Created with Inkscape (http://www.inkscape.org/) -->

<svg
   xmlns:osb="http://www.openswatchbook.org/uri/2009/osb"
   xmlns:dc="http://purl.org/dc/elements/1.1/"
   xmlns:cc="http://creativecommons.org/ns#"
   xmlns:rdf="http://www.w3.org/1999/02/22-rdf-syntax-ns#"
   xmlns:svg="http://www.w3.org/2000/svg"
   xmlns="http://www.w3.org/2000/svg"
   xmlns:xlink="http://www.w3.org/1999/xlink"
   xmlns:sodipodi="http://sodipodi.sourceforge.net/DTD/sodipodi-0.dtd"
   xmlns:inkscape="http://www.inkscape.org/namespaces/inkscape"
   id="svg8"
   version="1.1"
   viewBox="0 0 83.463471 58.243524"
   height="74mm"
   width="105mm"
   inkscape:version="0.92.2 (5c3e80d, 2017-08-06)"
   sodipodi:docname="logo.svg">
  <defs
     id="defs2">
    <linearGradient
       id="linearGradient6676-8">
      <stop
         id="stop6737"
         offset="0"
         style="stop-color:#2ad555;stop-opacity:1;" />
    </linearGradient>
    <linearGradient
       id="66769">
      <stop
         id="stop6734"
         offset="0"
         style="stop-color:#2ad555;stop-opacity:1;" />
    </linearGradient>
    <linearGradient
       id="linearGradient6676-8-9">
      <stop
         style="stop-color:#2ad555;stop-opacity:1;"
         offset="0"
         id="stop6674" />
    </linearGradient>
    <linearGradient
       id="linearGradient6586"
       osb:paint="solid">
      <stop
         style="stop-color:#88ee43;stop-opacity:1;"
         offset="0"
         id="stop6584" />
    </linearGradient>
    <inkscape:perspective
       sodipodi:type="inkscape:persp3d"
       inkscape:vp_x="0 : 116.88047 : 1"
       inkscape:vp_y="0 : 787.07466 : 0"
       inkscape:vp_z="166.92706 : 116.88051 : 1"
       inkscape:persp3d-origin="83.46346 : 77.920394 : 1"
       id="perspective3703" />
    <radialGradient
       inkscape:collect="always"
       xlink:href="#66769"
       id="radialGradient7124"
       cx="43.577145"
       cy="18.879726"
       fx="43.577145"
       fy="18.879726"
       r="20.48214"
       gradientTransform="matrix(1,0,0,0.38415771,0,11.626934)"
       gradientUnits="userSpaceOnUse" />
  </defs>
  <sodipodi:namedview
     inkscape:snap-text-baseline="false"
     inkscape:window-maximized="1"
     inkscape:window-y="-8"
     inkscape:window-x="-8"
     inkscape:window-height="705"
     inkscape:window-width="1366"
     showgrid="false"
     inkscape:current-layer="layer1"
     inkscape:document-units="mm"
     inkscape:cy="226.17934"
     inkscape:cx="405.2274"
     inkscape:zoom="0.47749719"
     inkscape:pageshadow="2"
     inkscape:pageopacity="0.0"
     borderopacity="1.0"
     bordercolor="#666666"
     pagecolor="#ffffff"
     id="base"
     inkscape:snap-global="true"
     inkscape:snap-page="false"
     units="mm"
     width="45mm"
     scale-x="0.8"
     viewbox-width="46.15"
     viewbox-x="0"
     viewbox-y="0"
     viewbox-height="30.65" />
  <metadata
     id="metadata5">
    <rdf:RDF>
      <cc:Work
         rdf:about="">
        <dc:format>image/svg+xml</dc:format>
        <dc:type
           rdf:resource="http://purl.org/dc/dcmitype/StillImage" />
        <dc:title></dc:title>
      </cc:Work>
    </rdf:RDF>
  </metadata>
  <g
     inkscape:label="Capa 1"
     inkscape:groupmode="layer"
     id="layer1"
     style="display:inline"
     transform="translate(0,-227.81943)">
    <flowRoot
       xml:space="preserve"
       id="flowRoot4145"
       style="font-style:normal;font-variant:normal;font-weight:bold;font-stretch:normal;font-size:40px;line-height:1.25;font-family:sans-serif;-inkscape-font-specification:'sans-serif Bold';letter-spacing:0px;word-spacing:0px;fill:#000000;fill-opacity:1;stroke:none"
       transform="scale(0.26458333)"><flowRegion
         id="flowRegion4147"
         style="font-style:normal;font-variant:normal;font-weight:bold;font-stretch:normal;font-family:sans-serif;-inkscape-font-specification:'sans-serif Bold'"><rect
           id="rect4149"
           width="259.60919"
           height="107.07617"
           x="71.720833"
           y="22.463531"
           style="font-style:normal;font-variant:normal;font-weight:bold;font-stretch:normal;font-family:sans-serif;-inkscape-font-specification:'sans-serif Bold'" /></flowRegion><flowPara
         id="flowPara4151" /></flowRoot>    <flowRoot
       xml:space="preserve"
       id="flowRoot8494"
       style="font-style:normal;font-weight:normal;font-size:40px;line-height:1.25;font-family:sans-serif;letter-spacing:0px;word-spacing:0px;fill:#000000;fill-opacity:1;stroke:none"
       transform="scale(0.26458333)"><flowRegion
         id="flowRegion8496"><rect
           id="rect8498"
           width="466.98114"
           height="154.71698"
           x="11.320755"
           y="12.142295" /></flowRegion><flowPara
         id="flowPara8500" /></flowRoot>    <text
       xml:space="preserve"
       style="font-style:normal;font-variant:normal;font-weight:bold;font-stretch:normal;font-size:25.7574501px;line-height:1.25;font-family:'Script MT Bold';-inkscape-font-specification:'Script MT Bold, Bold';font-variant-ligatures:normal;font-variant-caps:normal;font-variant-numeric:normal;font-feature-settings:normal;text-align:center;letter-spacing:0px;word-spacing:0px;writing-mode:lr-tb;text-anchor:middle;fill:#595930;fill-opacity:1;stroke:none;stroke-width:0.64393634"
       x="44.796688"
       y="248.00024"
       id="text8464"
       transform="scale(0.93217913,1.0727552)"><tspan
         sodipodi:role="line"
         id="tspan8462"
         x="44.796688"
         y="248.00024"
         style="font-style:normal;font-variant:normal;font-weight:bold;font-stretch:normal;font-size:25.7574501px;font-family:'Script MT Bold';-inkscape-font-specification:'Script MT Bold, Bold';font-variant-ligatures:normal;font-variant-caps:normal;font-variant-numeric:normal;font-feature-settings:normal;text-align:center;writing-mode:lr-tb;text-anchor:middle;fill:#595930;fill-opacity:1;stroke-width:0.64393634">EOM</tspan></text>
    <flowRoot
       xml:space="preserve"
       id="flowRoot8466"
       style="font-style:normal;font-weight:normal;font-size:40px;line-height:1.25;font-family:sans-serif;text-align:center;letter-spacing:0px;word-spacing:0px;text-anchor:middle;fill:#000000;fill-opacity:1;stroke:none"
       transform="matrix(0.21031469,0,0,0.21031469,0,261.87857)"><flowRegion
         id="flowRegion8468"><rect
           id="rect8470"
           width="485.86673"
           height="180.10577"
           x="-75.393112"
           y="-54.563408" /></flowRegion><flowPara
         id="flowPara8472"></flowPara></flowRoot>    <path
       style="fill:#649463;fill-opacity:1;stroke:none;stroke-width:2.06671453;stroke-miterlimit:4;stroke-dasharray:none;stroke-opacity:1"
       id="path8486"
       d="m 2.4279306,249.30768 c 0.602861,-1.29411 1.640631,-2.30669 2.704077,-3.2281 2.896841,-2.07057 6.0186354,-4.13852 9.5654504,-4.80202 1.554004,-0.52593 3.145921,-0.84284 4.776632,-0.99043 1.661156,-0.10536 3.325306,-0.1308 4.989182,-0.14855 1.231588,-0.01 2.463205,0.001 3.69482,-8.4e-4 1.002278,-0.003 2.004554,-0.006 3.006835,-0.008 0.989958,0.004 1.979908,0.005 2.969886,0.003 1.12859,-0.0772 2.234457,0.11497 3.350895,0.24232 1.237829,0.18137 2.483492,0.37466 3.712708,0.61722 1.50554,0.26578 3.027919,0.36849 4.538771,0.59736 1.143568,0.17934 2.297964,0.25837 3.453843,0.29264 0.961742,0.0159 1.923702,0.0192 2.88557,0.0179 1.074216,0.007 2.148461,-0.001 3.222675,-0.005 1.097837,0.003 2.195681,0.007 3.293524,0.005 0.986431,-0.003 1.972863,-0.007 2.9593,-0.008 1.030101,0.001 2.060199,0.008 3.090308,0.009 1.019018,-0.001 2.038031,-0.006 3.057048,-0.008 1.03386,-0.004 2.067706,0.005 3.101525,0.0133 1.297945,0.0848 2.570893,-0.0729 3.854831,-0.22997 1.237761,-0.11646 2.472058,-0.1841 3.704472,-0.35146 2.405407,-0.63841 7.638541,-3.99418 -2.601858,1.86017 2.147629,-1.36157 4.213609,-2.97507 6.645757,-3.74313 0,0 -5.107132,4.01956 -5.107132,4.01956 v 0 c -2.724417,1.37713 7.18669,-4.25668 4.503062,-2.62701 -2.571896,1.49262 -5.443074,3.78549 -8.586074,4.33199 -1.236778,0.15369 -2.480617,0.20347 -3.718046,0.35224 -1.297568,0.14785 -2.592719,0.21001 -3.899585,0.16895 -1.046062,0.008 -2.09215,0.0169 -3.138249,0.0133 -1.011607,-0.002 -2.02321,-0.007 -3.03482,-0.008 -1.038258,0.001 -2.076506,0.008 -3.114756,0.009 -0.978872,-0.002 -1.95774,-0.005 -2.936609,-0.008 -1.102445,-0.002 -2.204896,0.002 -3.307327,0.006 -1.072887,-0.002 -2.145814,-0.007 -3.218679,0.002 -0.969429,-1.2e-4 -1.939471,0.0123 -2.908069,-0.0371 -1.152911,-0.067 -2.300189,-0.19453 -3.439493,-0.38581 -1.516204,-0.2249 -3.046002,-0.33533 -4.55577,-0.60564 -1.233102,-0.19167 -2.457526,-0.43434 -3.696706,-0.57939 -1.113844,-0.12372 -2.224851,-0.19701 -3.346446,-0.15652 -0.992711,-0.002 -1.985396,-0.001 -2.978088,0.003 -0.992842,-0.002 -1.985675,-0.007 -2.978494,-0.0139 -1.222974,-0.007 -2.445959,-0.006 -3.668934,-0.0124 -1.639254,-10e-4 -3.282578,0.009 -4.914777,0.17753 -1.62299,0.21356 -3.199806,0.59909 -4.7663704,1.07351 -0.65672,0.17728 -1.30939,0.3683 -1.943375,0.61777 -0.237965,0.0936 -0.922619,0.43719 -0.704518,0.30367 1.346876,-0.82454 6.9282934,-4.09375 4.0963624,-2.38017 -1.0539604,0.78991 -2.0137224,1.71789 -2.6876234,2.86196 0,0 -5.925735,2.74057 -5.925735,2.74057 z"
       inkscape:connector-curvature="0" />
    <path
       style="display:inline;fill:#649463;fill-opacity:1;stroke:none;stroke-width:2.06671453;stroke-miterlimit:4;stroke-dasharray:none;stroke-opacity:1"
       id="path8486-2"
       d="m 2.2952872,278.0706 c 0.602861,-1.29411 1.640631,-2.30669 2.704077,-3.2281 2.896841,-2.07057 6.0186348,-4.13852 9.5654498,-4.80202 1.554004,-0.52593 3.145921,-0.84284 4.776632,-0.99043 1.661156,-0.10536 3.325306,-0.1308 4.989182,-0.14855 1.231589,-0.01 2.46321,10e-4 3.69482,-8.4e-4 1.00228,-0.003 2.00455,-0.006 3.00683,-0.008 0.98996,0.004 1.97991,0.005 2.96989,0.003 1.12859,-0.0772 2.23446,0.11497 3.3509,0.24232 1.23783,0.18137 2.48349,0.37466 3.7127,0.61722 1.50554,0.26578 3.02792,0.36849 4.53877,0.59736 1.14357,0.17934 2.29797,0.25837 3.45385,0.29264 0.96174,0.0159 1.9237,0.0192 2.88557,0.0179 1.07421,0.007 2.14846,-10e-4 3.22267,-0.005 1.09784,0.003 2.19568,0.007 3.29353,0.005 0.98643,-0.003 1.97286,-0.007 2.9593,-0.008 1.0301,10e-4 2.0602,0.008 3.09031,0.009 1.01901,-0.001 2.03803,-0.006 3.05704,-0.008 1.03386,-0.004 2.06771,0.005 3.10153,0.0133 1.29794,0.0848 2.57089,-0.0729 3.85483,-0.22997 1.23776,-0.11646 2.47206,-0.1841 3.70447,-0.35146 2.40541,-0.63841 7.63854,-3.99418 -2.60186,1.86017 2.14763,-1.36157 4.21361,-2.97507 6.64576,-3.74313 0,0 -5.10713,4.01956 -5.10713,4.01956 v 0 c -2.72442,1.37713 7.18669,-4.25668 4.50306,-2.62701 -2.5719,1.49262 -5.44308,3.78549 -8.58607,4.33199 -1.23678,0.15369 -2.48062,0.20347 -3.71805,0.35224 -1.29757,0.14785 -2.59272,0.21001 -3.89958,0.16895 -1.04607,0.008 -2.09216,0.0169 -3.13826,0.0133 -1.0116,-0.002 -2.0232,-0.007 -3.03482,-0.008 -1.03825,0.001 -2.0765,0.008 -3.11475,0.009 -0.97887,-0.002 -1.95774,-0.005 -2.93661,-0.008 -1.10244,-0.002 -2.2049,0.002 -3.30733,0.006 -1.07288,-0.002 -2.14581,-0.007 -3.21868,0.002 -0.96942,-1.2e-4 -1.93947,0.0123 -2.90806,-0.0371 -1.15292,-0.067 -2.30019,-0.19453 -3.4395,-0.38581 -1.5162,-0.2249 -3.046,-0.33533 -4.55577,-0.60564 -1.2331,-0.19167 -2.45752,-0.43434 -3.6967,-0.57939 -1.11385,-0.12372 -2.22485,-0.19701 -3.34645,-0.15652 -0.99271,-0.002 -1.9854,-10e-4 -2.978087,0.003 -0.992841,-0.002 -1.985674,-0.007 -2.978494,-0.0139 -1.222974,-0.007 -2.445959,-0.006 -3.668934,-0.0124 -1.639254,-10e-4 -3.282578,0.009 -4.914777,0.17753 -1.62299,0.21356 -3.199806,0.59909 -4.7663698,1.07351 -0.65672,0.17728 -1.30939,0.3683 -1.943375,0.61777 -0.237965,0.0936 -0.922619,0.43719 -0.704518,0.30367 1.346876,-0.82454 6.9282928,-4.09375 4.0963618,-2.38017 -1.0539598,0.78991 -2.0137218,1.71789 -2.6876228,2.86196 0,0 -5.925735,2.74057 -5.925735,2.74057 z"
       inkscape:connector-curvature="0" />
  </g>
</svg>
